<?xml version="1.0" standalone="no"?>
<!DOCTYPE svg PUBLIC "-//W3C//DTD SVG 20010904//EN"
 "http://www.w3.org/TR/2001/REC-SVG-20010904/DTD/svg10.dtd">
<svg version="1.0" xmlns="http://www.w3.org/2000/svg"
 width="1280.000000pt" height="898.000000pt" viewBox="0 0 1280.000000 898.000000"
 preserveAspectRatio="xMidYMid meet">
<g transform="translate(0.000000,898.000000) scale(0.100000,-0.100000)"
fill="#000000" stroke="none">
<path d="M6824 8917 c-128 -67 -136 -73 -132 -111 l3 -31 -51 3 c-48 3 -55 0
-130 -56 -43 -32 -87 -68 -97 -79 -40 -46 7 -70 200 -103 67 -11 139 -27 160
-36 38 -14 38 -14 -37 -9 -41 2 -147 16 -234 30 -182 29 -185 28 -232 -48 -15
-23 -40 -57 -55 -75 -37 -42 -38 -75 -3 -91 14 -6 105 -21 202 -32 98 -11 195
-25 217 -32 l40 -12 -55 -3 c-30 -2 -146 6 -258 18 -158 17 -211 19 -231 10
-35 -14 -131 -178 -131 -222 l0 -31 -67 5 c-38 3 -85 14 -105 24 -36 17 -40
17 -73 1 -41 -20 -95 -21 -215 -6 -55 6 -95 7 -111 1 -28 -11 -2162 -1909
-2216 -1971 -41 -48 -28 -60 95 -86 35 -7 66 -15 69 -18 14 -14 -11 -39 -64
-65 -63 -30 -75 -54 -54 -113 9 -25 6 -32 -20 -59 -17 -16 -36 -30 -42 -30 -7
0 -84 16 -172 35 -88 19 -170 35 -182 35 -12 0 -42 -17 -67 -37 -77 -64 -1016
-876 -1536 -1328 -272 -237 -607 -527 -745 -645 -137 -117 -282 -243 -320
-279 -39 -36 -94 -82 -123 -101 -29 -19 -52 -39 -52 -43 0 -18 43 -68 70 -82
15 -8 86 -34 156 -59 71 -24 257 -92 414 -151 427 -161 388 -148 415 -131 13
9 36 38 51 66 16 30 55 74 93 107 36 30 381 364 766 742 1552 1522 1624 1591
1651 1591 7 0 21 -14 29 -31 15 -27 15 -33 1 -54 -21 -32 -2347 -2357 -2385
-2384 -50 -36 -40 -91 24 -123 29 -15 861 -347 939 -375 54 -19 74 -9 101 52
16 36 75 110 183 232 87 98 378 428 647 733 766 870 879 998 892 1004 7 3 38
1 68 -5 90 -16 116 11 75 79 -11 18 -20 40 -20 50 0 36 520 625 544 616 23 -9
36 -53 36 -122 0 -60 4 -74 35 -122 33 -51 35 -60 35 -135 0 -77 2 -84 35
-131 41 -56 56 -104 48 -145 -9 -47 5 -93 48 -157 37 -55 46 -62 87 -71 94
-19 210 -34 226 -28 26 10 19 47 -20 110 -31 51 -37 70 -44 145 -6 75 -12 95
-44 146 -32 53 -36 67 -36 128 0 56 -5 79 -30 128 -23 45 -30 73 -30 117 0 45
-8 75 -35 132 -39 86 -35 111 16 111 17 0 203 -29 414 -65 210 -36 385 -65
387 -65 3 0 11 -12 17 -27 19 -47 121 -413 121 -434 0 -27 -25 -25 -139 12
-164 53 -223 50 -325 -14 -92 -58 -165 -217 -174 -378 -5 -95 5 -141 45 -202
31 -49 92 -78 238 -111 61 -14 175 -44 255 -66 109 -32 155 -40 188 -36 24 3
42 2 42 -4 0 -5 -13 -31 -30 -57 -33 -52 -37 -87 -16 -137 17 -41 57 -73 110
-88 22 -6 47 -16 54 -23 7 -6 24 -66 37 -133 27 -137 50 -190 97 -225 131 -98
391 -67 534 65 95 88 105 140 60 313 -17 63 -23 102 -16 109 9 9 633 -154 648
-169 4 -3 1 -15 -6 -25 -18 -29 -15 -84 6 -102 9 -9 31 -20 47 -25 24 -7 31
-16 33 -40 2 -24 -7 -43 -40 -84 -24 -30 -205 -263 -403 -519 -400 -519 -659
-851 -935 -1200 -102 -129 -210 -269 -239 -310 -30 -41 -76 -96 -104 -121 -50
-46 -51 -46 -37 -78 21 -52 65 -77 250 -139 96 -33 355 -126 574 -206 220 -80
415 -146 433 -146 39 0 58 24 78 99 10 37 103 181 392 603 209 304 550 805
758 1113 919 1361 936 1385 956 1385 17 0 68 -91 61 -108 -4 -10 -84 -132
-178 -272 -401 -599 -1593 -2405 -1657 -2510 -85 -142 -144 -224 -191 -269
-41 -39 -44 -56 -18 -100 20 -37 114 -80 412 -191 344 -127 693 -261 777 -297
46 -19 89 -33 97 -30 25 10 49 56 57 108 6 39 77 171 337 627 182 317 508 890
725 1272 217 382 483 846 590 1030 l195 335 54 -1 c29 -1 89 -6 132 -11 44 -5
90 -8 103 -5 34 6 30 45 -11 112 -27 44 -34 69 -39 128 -3 40 -12 89 -19 108
-12 35 -11 40 41 138 29 55 91 167 137 248 46 80 84 151 84 157 0 22 -52 43
-158 61 -204 37 -266 50 -275 59 -15 15 9 38 51 51 86 26 93 32 163 134 39 55
75 104 82 107 7 4 62 -6 122 -22 61 -16 120 -29 132 -29 27 0 59 40 108 140
21 41 96 179 168 305 143 254 257 457 907 1625 243 437 446 800 451 806 28 34
-89 63 -259 64 -63 0 -92 5 -123 21 -39 19 -42 20 -90 4 -45 -15 -64 -16 -186
-4 -94 9 -140 10 -151 2 -10 -5 -35 -39 -57 -74 -21 -35 -118 -185 -215 -334
-97 -148 -369 -571 -605 -940 -467 -730 -825 -1278 -844 -1290 -19 -11 -99 4
-105 20 -3 8 160 262 387 605 1128 1699 1286 1937 1298 1963 11 24 10 30 -5
45 -14 14 -42 18 -159 22 -117 4 -147 8 -170 24 -23 15 -36 17 -75 10 -26 -4
-122 -8 -214 -9 -154 0 -169 -2 -186 -20 -11 -11 -116 -150 -234 -310 -117
-159 -418 -558 -669 -885 -250 -327 -557 -731 -682 -897 -126 -167 -232 -303
-238 -303 -5 0 -15 14 -21 30 -13 39 -36 50 -115 60 -36 5 -67 11 -70 13 -10
11 14 37 87 95 97 76 122 106 177 216 34 69 65 110 127 175 64 66 88 99 104
144 12 32 22 61 22 66 0 5 24 30 53 57 89 83 91 87 76 144 -15 59 -21 49 169
276 74 88 139 170 145 183 16 34 -16 57 -100 70 -280 43 -378 61 -390 74 -8 8
-26 63 -40 122 -29 122 -47 150 -88 135 -69 -26 -73 2 -10 72 30 33 50 68 61
103 12 43 20 55 43 63 15 5 44 24 63 41 20 17 42 31 50 31 8 0 57 -30 107 -67
172 -126 183 -133 205 -133 14 0 43 22 80 62 72 78 72 99 1 144 -131 82 -195
127 -195 138 1 6 7 22 15 36 8 14 14 52 15 85 0 142 -125 285 -250 285 -50 0
-60 19 -31 56 12 15 21 35 21 46 0 19 5 22 52 32 18 4 47 34 97 99 61 80 71
99 71 134 0 33 4 42 25 51 13 6 33 29 45 51 11 23 34 62 50 88 35 55 38 78 9
93 -18 10 -455 41 -995 70 -228 12 -280 21 -338 55 -23 14 -54 25 -67 25 -13
0 -63 -26 -111 -58 -70 -47 -105 -80 -191 -182 -138 -166 -137 -165 -181 -150
-20 6 -38 16 -41 21 -8 12 20 51 131 177 99 113 109 136 78 182 -38 56 -72 63
-133 28 l-37 -21 -130 31 c-71 17 -300 72 -509 123 -209 50 -389 93 -400 95
-11 2 -66 -20 -121 -49z"/>
</g>
</svg>
