<?xml version="1.0" standalone="no"?>
<!DOCTYPE svg PUBLIC "-//W3C//DTD SVG 20010904//EN"
 "http://www.w3.org/TR/2001/REC-SVG-20010904/DTD/svg10.dtd">
<svg version="1.0" xmlns="http://www.w3.org/2000/svg"
 width="1280.000000pt" height="1020.000000pt" viewBox="0 0 1280.000000 1020.000000"
 preserveAspectRatio="xMidYMid meet">
<g transform="translate(0.000000,1020.000000) scale(0.100000,-0.100000)"
fill="#000000" stroke="none">
<path d="M787 10069 c-423 -75 -728 -134 -742 -143 -13 -8 -28 -30 -34 -49
-10 -30 16 -145 263 -1138 150 -607 281 -1136 291 -1175 l17 -71 136 43 c133
41 457 143 1150 360 185 58 378 119 427 134 69 21 89 32 87 44 -2 9 -59 170
-127 359 -209 579 -338 937 -474 1317 -72 201 -137 376 -145 390 -16 30 -71
60 -106 59 -14 -1 -348 -59 -743 -130z"/>
<path d="M1513 7722 c-485 -152 -884 -280 -888 -283 -6 -7 2213 -1975 2224
-1972 4 1 206 92 448 203 l442 201 35 -38 c20 -21 36 -41 36 -44 0 -5 -231
-118 -680 -332 -284 -136 -405 -267 -471 -512 -26 -96 -31 -279 -10 -395 19
-104 71 -261 121 -361 210 -418 569 -690 909 -689 170 1 271 37 466 167 265
177 1156 753 1166 753 13 0 90 -52 85 -57 -2 -3 -216 -145 -475 -317 l-471
-312 32 -30 c18 -17 616 -534 1328 -1149 712 -616 1361 -1176 1441 -1246 l146
-127 994 893 c546 492 995 897 996 902 1 4 -679 462 -1512 1017 l-1515 1009
-379 -252 -379 -253 -31 33 c-17 19 -31 36 -31 39 0 3 215 144 478 314 415
270 487 320 558 391 66 66 90 99 128 176 61 125 77 190 83 339 10 259 -72 490
-232 645 -125 122 -299 209 -475 236 -106 16 -324 6 -425 -21 -125 -32 -137
-38 -913 -414 l-734 -355 -51 34 -51 34 35 15 c19 8 171 77 339 154 168 76
349 159 402 183 54 24 97 47 95 51 -5 14 -2353 1648 -2367 1647 -8 0 -412
-125 -897 -277z"/>
<path d="M8485 2037 c-552 -502 -1002 -913 -1001 -914 3 -3 154 -56 471 -163
127 -43 336 -115 465 -159 598 -203 732 -249 975 -331 350 -119 1112 -378
1259 -429 66 -23 134 -41 153 -41 93 0 64 -29 1053 1062 509 561 929 1030 934
1044 7 17 5 33 -7 59 -31 66 -68 80 -393 151 -164 36 -868 189 -1564 340 -696
151 -1282 279 -1303 284 l-38 8 -1004 -911z"/>
</g>
</svg>
