<?xml version="1.0" standalone="no"?>
<!DOCTYPE svg PUBLIC "-//W3C//DTD SVG 20010904//EN"
 "http://www.w3.org/TR/2001/REC-SVG-20010904/DTD/svg10.dtd">
<svg version="1.0" xmlns="http://www.w3.org/2000/svg"
 width="1266.000000pt" height="1280.000000pt" viewBox="0 0 1266.000000 1280.000000"
 preserveAspectRatio="xMidYMid meet">
<g transform="translate(0.000000,1280.000000) scale(0.100000,-0.100000)"
fill="#000000" stroke="none">
<path d="M2385 12783 c-109 -28 -1018 -250 -1135 -278 -94 -22 -120 -32 -142
-56 -52 -54 -71 81 252 -1719 33 -184 99 -557 147 -828 83 -466 89 -493 108
-489 21 5 1605 693 1612 701 3 3 -27 130 -67 283 -40 153 -157 604 -261 1003
-104 399 -223 858 -265 1020 -42 162 -83 307 -91 322 -13 28 -60 59 -85 57 -7
-1 -40 -8 -73 -16z"/>
<path d="M2442 9690 c-442 -191 -806 -351 -810 -354 -3 -3 2 -14 10 -23 8 -10
453 -556 988 -1213 534 -657 982 -1206 995 -1219 l23 -24 354 223 c194 123
376 238 403 256 l51 32 36 -52 36 -52 -378 -253 c-396 -265 -458 -315 -532
-431 -183 -286 -213 -727 -81 -1197 l17 -62 -24 -26 -24 -25 -110 108 c-570
556 -1244 917 -1891 1013 -149 22 -413 26 -540 9 -178 -25 -360 -83 -504 -162
-165 -91 -332 -244 -384 -351 -319 -656 404 -2254 1621 -3584 l93 -102 -271
-515 c-228 -433 -272 -523 -273 -561 -1 -31 3 -50 16 -62 36 -37 58 -7 359
487 159 261 293 482 298 490 7 12 46 -22 187 -161 1062 -1049 2031 -1598 2579
-1459 222 56 340 175 391 395 16 70 18 125 18 440 -1 311 -4 385 -23 545 -107
874 -421 1773 -895 2560 -38 63 -71 118 -74 123 -2 4 26 -9 64 -28 210 -109
411 -80 588 86 58 54 1051 949 1108 997 16 14 21 12 56 -22 l39 -38 -381 -352
c-210 -193 -404 -371 -431 -397 l-49 -46 1333 -1596 c733 -878 1336 -1597
1339 -1596 8 0 1795 2230 1799 2244 2 7 -614 582 -1368 1278 l-1371 1267 -317
-292 c-174 -160 -329 -303 -345 -317 -30 -27 -31 -27 -71 40 l-15 25 415 374
c228 205 440 400 472 435 102 110 175 259 219 447 24 102 27 132 27 313 0 170
-3 216 -22 310 -58 276 -139 436 -297 583 -153 144 -354 211 -551 183 -83 -12
-194 -46 -264 -81 -20 -10 -339 -222 -709 -470 l-673 -452 -44 44 -44 43 395
250 c217 137 394 252 393 256 -6 14 -2131 2064 -2141 2066 -7 1 -374 -155
-815 -347z"/>
<path d="M8969 2828 c-381 -480 -791 -996 -911 -1146 l-218 -273 113 -53 c61
-29 472 -223 912 -431 440 -207 1059 -499 1375 -648 627 -296 633 -298 697
-251 15 12 404 595 876 1315 641 979 847 1301 847 1323 0 37 -33 105 -65 136
-13 12 -65 35 -117 50 -89 27 -686 207 -1343 405 -170 51 -476 144 -680 205
-621 187 -770 232 -781 237 -6 2 -323 -389 -705 -869z"/>
</g>
</svg>
