<?xml version="1.0" standalone="no"?>
<!DOCTYPE svg PUBLIC "-//W3C//DTD SVG 20010904//EN"
 "http://www.w3.org/TR/2001/REC-SVG-20010904/DTD/svg10.dtd">
<svg version="1.0" xmlns="http://www.w3.org/2000/svg"
 width="1280.000000pt" height="1212.000000pt" viewBox="0 0 1280.000000 1212.000000"
 preserveAspectRatio="xMidYMid meet">
<g transform="translate(0.000000,1212.000000) scale(0.100000,-0.100000)"
fill="#000000" stroke="none">
<path d="M7754 12085 c-22 -16 -52 -39 -67 -50 -24 -18 -26 -23 -18 -55 5 -19
15 -61 21 -93 11 -57 12 -58 73 -88 34 -17 69 -37 77 -44 8 -7 27 -15 43 -19
34 -8 68 -41 61 -59 -3 -8 2 -20 11 -27 13 -11 15 -9 13 10 -4 33 15 35 50 5
16 -14 42 -25 56 -25 26 0 146 73 146 88 0 10 -40 196 -43 198 -1 1 -88 44
-193 96 l-192 93 -38 -30z"/>
<path d="M7978 11534 c-9 -8 1 -66 13 -78 16 -18 18 0 6 42 -7 24 -16 40 -19
36z"/>
<path d="M8017 11343 c-9 -14 3 -72 15 -79 16 -10 17 1 4 46 -7 24 -16 39 -19
33z"/>
<path d="M8057 11153 c-8 -13 2 -71 14 -78 14 -9 16 9 4 49 -6 22 -14 35 -18
29z"/>
<path d="M8097 10964 c-8 -14 2 -72 14 -80 14 -8 23 24 11 39 -5 6 -12 21 -14
32 -2 13 -6 16 -11 9z"/>
<path d="M8135 10761 c5 -54 18 -85 27 -59 2 7 -4 36 -13 63 l-18 50 4 -54z"/>
<path d="M4962 10685 c0 -16 2 -22 5 -12 2 9 2 23 0 30 -3 6 -5 -1 -5 -18z"/>
<path d="M4920 10615 c0 -9 5 -15 11 -13 6 2 11 8 11 13 0 5 -5 11 -11 13 -6
2 -11 -4 -11 -13z"/>
<path d="M8174 10567 c7 -57 15 -75 26 -57 7 11 -14 88 -27 100 -3 3 -3 -17 1
-43z"/>
<path d="M4985 10580 c3 -5 8 -10 11 -10 2 0 4 5 4 10 0 6 -5 10 -11 10 -5 0
-7 -4 -4 -10z"/>
<path d="M8214 10377 c3 -27 11 -56 17 -65 8 -13 9 -5 5 31 -3 27 -11 56 -17
65 -8 13 -9 5 -5 -31z"/>
<path d="M2103 10204 c-174 -98 -206 -113 -223 -104 -32 17 -54 4 -77 -44 -21
-42 -33 -50 -237 -163 -119 -65 -214 -122 -213 -126 1 -5 155 -101 342 -213
l339 -205 40 17 c23 10 116 60 207 111 181 101 199 110 199 96 0 -5 -79 -51
-175 -103 -97 -51 -174 -98 -172 -104 4 -13 637 -395 655 -396 7 0 91 43 186
95 157 86 217 112 202 86 -4 -5 -82 -51 -176 -103 -93 -51 -168 -97 -167 -103
4 -12 637 -395 652 -395 7 0 84 40 173 89 262 145 282 136 30 -14 -83 -49
-153 -94 -154 -100 -3 -9 40 -37 245 -157 l46 -27 118 69 c65 39 122 70 128
70 9 0 8 -159 -3 -379 -2 -38 2 -47 30 -71 18 -14 32 -32 32 -38 0 -19 -49
-26 -68 -10 -27 23 -692 420 -712 425 -18 5 -108 -44 -350 -189 -62 -37 -98
-53 -105 -47 -12 12 -30 -1 218 146 108 64 197 119 197 122 -1 3 -165 104
-365 225 l-364 218 -218 -127 c-120 -71 -221 -130 -225 -132 -4 -2 -17 1 -29
7 -25 14 -54 -8 -75 -55 -17 -42 -26 -48 -234 -175 -102 -62 -191 -118 -198
-125 -10 -9 58 -55 343 -229 l357 -217 213 131 c118 71 219 130 225 130 37 0
-14 -40 -186 -144 -107 -66 -197 -123 -200 -127 -2 -4 156 -104 351 -223 280
-171 359 -215 373 -207 9 5 101 60 203 123 102 63 193 117 202 121 8 3 21 -1
28 -9 15 -19 32 -7 -178 -126 -90 -50 -163 -94 -163 -97 0 -7 684 -421 695
-421 3 0 37 18 75 40 38 22 76 40 84 40 29 0 16 -20 -31 -50 -95 -58 -94 -51
-19 -98 l66 -41 0 -49 c0 -28 -8 -64 -20 -87 -34 -68 -22 -227 25 -316 14 -27
25 -59 25 -72 0 -13 12 -46 26 -73 14 -27 40 -91 57 -143 37 -110 57 -128 57
-53 0 47 17 82 40 82 4 0 48 -21 96 -47 49 -26 116 -57 149 -69 32 -12 61 -26
62 -31 2 -5 -15 -18 -38 -28 -75 -34 -149 -139 -168 -238 -11 -61 -17 -66 -43
-39 -20 20 -21 22 -5 40 24 27 21 47 -13 86 -57 64 -140 73 -140 15 0 -24 13
-44 65 -94 36 -35 65 -69 65 -75 0 -6 -27 -10 -68 -10 -214 0 -389 -123 -457
-323 -16 -47 -24 -59 -45 -63 -86 -17 -201 -50 -272 -78 -90 -36 -228 -103
-228 -111 0 -3 21 -15 46 -26 52 -22 118 -70 149 -109 11 -13 28 -31 37 -39
10 -9 18 -21 18 -27 0 -7 3 -14 8 -16 13 -6 47 -61 79 -128 55 -117 56 -120
36 -144 -37 -43 -45 -46 -113 -40 -72 8 -101 11 -112 13 -5 0 -8 8 -8 16 0 20
-4 19 -50 -10 -22 -14 -44 -25 -49 -25 -6 0 -24 27 -41 59 -68 127 -188 230
-306 261 l-68 19 -86 -51 c-47 -28 -90 -58 -97 -66 -14 -16 -38 -18 -129 -7
-50 6 -68 4 -109 -14 -26 -11 -52 -21 -58 -21 -6 0 -32 20 -57 44 -38 36 -57
46 -118 61 -66 16 -77 22 -110 63 -61 75 -66 79 -143 97 -78 19 -108 39 -155
106 -23 34 -34 40 -102 55 -71 17 -82 23 -142 80 -58 55 -73 63 -135 78 -86
21 -82 18 -132 86 -38 52 -45 56 -126 83 -78 25 -91 34 -135 83 -45 50 -54 56
-128 74 -72 19 -83 25 -122 70 -24 28 -48 50 -53 50 -7 0 -514 -299 -631 -372
-53 -33 -53 -35 4 -96 31 -33 48 -42 110 -57 67 -16 77 -22 128 -76 49 -52 64
-61 140 -86 80 -26 87 -31 128 -85 34 -46 52 -60 85 -69 121 -33 137 -41 181
-90 44 -49 70 -62 172 -88 32 -9 50 -23 86 -70 45 -58 48 -59 133 -82 84 -22
88 -24 129 -78 23 -31 45 -64 49 -74 7 -19 53 -41 67 -32 5 3 25 6 45 7 31 1
44 -7 98 -59 51 -50 74 -65 132 -83 57 -19 82 -34 135 -84 60 -57 71 -63 142
-80 75 -17 78 -19 119 -74 24 -31 46 -60 51 -63 5 -3 42 -13 84 -23 72 -17 77
-20 126 -79 50 -60 53 -63 137 -85 79 -21 91 -28 146 -81 53 -52 68 -60 132
-77 69 -17 75 -21 122 -79 48 -59 52 -61 128 -80 80 -20 91 -27 153 -103 32
-38 44 -45 115 -63 75 -19 84 -24 135 -78 52 -55 60 -60 133 -77 70 -16 82
-22 123 -66 45 -48 49 -68 15 -68 -12 0 -20 -9 -23 -25 -7 -32 3 -32 42 1 l31
26 62 -17 c34 -9 68 -22 75 -27 7 -6 12 -34 12 -69 0 -41 4 -59 13 -59 6 0 55
25 107 55 52 30 99 55 104 55 6 0 22 -12 37 -26 35 -34 99 -43 135 -20 40 27
54 15 54 -46 0 -29 -4 -58 -8 -65 -4 -6 -31 -20 -59 -31 -62 -23 -113 -71
-113 -104 0 -14 11 -34 25 -46 34 -29 31 -46 -9 -70 -104 -62 -76 -223 41
-239 26 -3 50 0 72 11 41 21 51 14 51 -35 0 -42 19 -68 85 -115 l29 -20 -50
-65 c-28 -36 -63 -95 -79 -132 -15 -37 -31 -67 -34 -67 -12 0 -44 -63 -55
-104 -5 -23 -10 -82 -10 -131 0 -82 2 -95 29 -140 55 -95 120 -151 208 -179
14 -4 17 -17 17 -65 0 -66 6 -72 59 -60 47 10 53 20 55 81 1 50 2 53 26 50 14
-1 68 -5 120 -8 52 -3 105 -10 117 -16 19 -9 26 -6 55 25 19 20 51 40 73 46
22 6 49 18 59 26 30 23 36 18 36 -28 0 -87 35 -96 123 -32 46 35 47 36 47 91
0 41 -3 53 -12 48 -7 -4 -35 -23 -62 -41 -55 -38 -64 -40 -73 -16 -5 12 7 29
40 58 39 34 50 53 73 120 22 70 25 93 22 180 -3 86 -8 109 -34 165 -17 36 -52
89 -79 118 -29 32 -45 58 -41 67 7 20 26 19 26 0 0 -29 162 -85 246 -85 12 0
34 -19 56 -49 35 -47 41 -50 115 -67 73 -17 82 -21 138 -79 56 -57 65 -62 137
-79 76 -17 78 -19 127 -81 39 -49 57 -64 84 -69 105 -20 132 -34 179 -95 44
-56 49 -59 119 -76 67 -16 80 -23 134 -76 49 -48 73 -63 135 -84 62 -21 86
-36 135 -84 34 -34 73 -61 90 -65 115 -26 130 -34 174 -94 39 -55 46 -60 99
-72 91 -20 116 -34 162 -93 42 -53 46 -56 129 -77 79 -21 91 -28 147 -82 36
-34 76 -63 95 -68 19 -5 52 -14 75 -19 32 -9 51 -23 87 -70 46 -58 49 -60 133
-82 83 -22 86 -24 131 -81 40 -51 53 -60 102 -74 31 -9 70 -20 88 -25 18 -6
51 -32 77 -64 44 -50 50 -54 124 -71 71 -17 82 -23 142 -80 43 -41 77 -64 100
-69 19 -4 50 -14 69 -21 29 -12 37 -12 50 -1 9 8 161 101 338 207 178 106 321
196 318 200 -2 4 -32 13 -67 20 -56 11 -66 17 -116 70 -51 55 -58 60 -130 76
-72 16 -81 21 -134 76 -52 53 -63 60 -138 80 -77 20 -84 25 -128 77 -25 31
-48 58 -49 60 -2 2 -40 14 -85 26 -80 21 -85 24 -133 82 -48 58 -53 62 -125
79 -68 16 -81 24 -138 79 -57 54 -72 62 -145 82 -70 19 -86 28 -112 60 -64 80
-68 83 -150 103 -53 14 -86 28 -98 43 -88 108 -80 102 -163 121 -73 17 -82 22
-133 76 -48 49 -67 62 -126 80 -58 19 -80 32 -131 82 -54 53 -69 61 -133 78
-77 19 -103 37 -147 101 -20 29 -38 42 -68 50 -133 34 -139 37 -181 94 -35 48
-47 57 -95 71 -30 8 -69 20 -86 25 -17 5 -55 34 -83 64 -37 39 -64 58 -94 65
-134 35 -120 27 -170 97 -35 48 -43 53 -120 78 -73 23 -88 33 -137 84 -50 54
-61 60 -128 76 -80 19 -93 27 -152 100 -46 57 -50 81 -15 97 25 11 25 13 25
135 0 115 -1 123 -20 123 -10 0 -84 -38 -164 -85 -80 -47 -152 -85 -161 -85
-8 0 -15 8 -15 18 0 9 -10 23 -21 30 -18 11 -21 20 -16 53 6 47 -1 79 -18 79
-7 0 -30 -14 -51 -31 -72 -57 -108 -71 -156 -58 -24 5 -81 18 -128 28 l-85 17
-3 103 -3 103 41 38 40 37 0 104 c0 116 -7 131 -51 122 l-29 -5 0 219 0 220
-77 6 c-43 4 -103 13 -134 21 -30 8 -62 16 -70 18 -11 2 -15 -12 -17 -64 l-3
-68 -40 0 c-42 0 -87 -18 -108 -44 -8 -9 -17 -16 -22 -16 -5 0 -9 56 -9 125 0
111 -2 126 -17 131 -56 18 -84 33 -140 76 l-63 47 0 -268 c0 -203 -3 -271 -13
-279 -8 -7 -27 -7 -61 1 -43 10 -56 19 -100 73 -49 61 -53 63 -134 84 -80 21
-85 24 -130 81 -48 59 -51 60 -164 90 -30 8 -61 30 -110 76 -79 76 -79 75 22
131 49 27 65 42 62 55 -8 39 45 65 55 27 7 -25 9 -25 39 -1 21 17 38 18 191
13 149 -4 171 -7 196 -26 31 -23 62 -13 62 20 0 18 72 67 86 59 3 -3 14 4 24
15 30 33 170 110 201 110 16 1 43 7 59 14 l30 13 -30 7 c-19 4 -44 1 -65 -8
-23 -9 -58 -13 -100 -10 -36 2 -123 4 -194 4 -138 0 -176 5 -176 24 0 15 95
96 113 96 8 0 25 -16 38 -35 27 -40 57 -54 70 -34 15 23 10 33 -24 49 -17 8
-38 27 -47 42 -13 25 -13 29 6 55 18 23 28 28 60 25 232 -15 327 9 430 108 71
67 136 159 155 218 19 59 24 62 76 46 98 -30 190 -10 307 64 26 17 61 34 77
37 72 16 167 141 184 242 4 24 10 45 13 47 6 4 105 -17 212 -44 68 -17 107 -5
256 81 77 44 156 89 177 100 l38 20 148 -91 c82 -49 153 -90 159 -90 5 0 89
45 186 100 97 55 183 100 192 100 38 0 -4 -32 -165 -124 -140 -80 -170 -101
-159 -111 21 -20 672 -408 684 -408 5 0 87 43 181 96 199 113 206 116 202 93
-2 -10 -74 -60 -163 -115 -88 -53 -161 -101 -163 -107 -1 -5 153 -102 343
-217 l345 -207 181 109 c100 61 185 108 189 105 24 -14 -7 -38 -188 -148 -179
-109 -194 -121 -177 -133 31 -23 690 -423 697 -423 4 0 98 56 210 125 112 69
209 125 216 125 7 0 11 -7 9 -17 -2 -9 -85 -65 -192 -128 -105 -62 -192 -117
-194 -123 -2 -8 704 -442 721 -442 3 0 97 54 209 120 157 93 210 120 235 118
38 -2 55 10 77 59 16 34 41 52 242 167 123 70 224 131 224 135 0 5 -333 208
-711 435 -13 7 -65 -19 -234 -117 -202 -118 -275 -153 -234 -111 9 8 105 68
214 132 109 64 200 122 201 127 3 8 -384 247 -675 417 l-47 27 -127 -74 c-71
-41 -135 -75 -143 -75 -8 0 -14 -4 -14 -9 0 -10 -151 -101 -168 -101 -29 0 -6
22 71 65 98 56 92 52 189 111 43 25 80 49 83 54 2 4 -151 101 -340 215 -240
144 -351 205 -363 200 -9 -3 -94 -51 -188 -106 -94 -54 -179 -99 -188 -99 -43
0 -1 34 164 130 99 58 180 107 180 110 0 5 -671 411 -691 418 -5 2 -95 -47
-200 -108 -146 -87 -193 -110 -202 -101 -14 14 -30 3 185 126 92 53 170 99
172 104 3 4 -25 26 -62 48 -37 22 -67 45 -67 52 0 6 29 29 65 49 71 41 77 52
79 145 1 32 6 49 16 53 12 5 70 -27 195 -106 141 -89 513 -310 517 -306 3 2
-19 78 -48 168 -28 90 -62 195 -75 235 l-22 72 28 37 c35 47 29 68 -26 100
-35 21 -46 34 -55 67 -6 23 -15 52 -20 64 -4 12 -31 93 -59 178 -51 153 -53
157 -96 188 -24 17 -44 34 -44 39 0 4 -8 8 -19 8 -10 0 -49 20 -85 45 -37 25
-70 45 -73 45 -9 0 -273 162 -282 174 -9 11 -41 178 -61 321 -5 33 -25 150
-44 260 -20 110 -50 281 -67 380 -17 99 -39 227 -49 285 -10 58 -37 215 -60
350 -42 254 -47 276 -55 268 -5 -4 17 -159 64 -458 6 -36 33 -216 61 -400 28
-184 60 -393 70 -465 11 -71 22 -148 25 -170 2 -22 13 -94 24 -160 12 -66 21
-128 21 -137 0 -26 -23 -22 -77 12 -46 28 -48 28 -55 10 -4 -11 -13 -20 -19
-20 -15 0 -163 89 -167 101 -2 5 -9 9 -15 9 -7 0 -92 48 -189 107 -121 73
-178 113 -178 125 0 10 7 36 16 58 16 39 16 43 -10 113 -32 89 -32 92 0 172
l26 65 -26 67 c-32 85 -32 94 0 173 l25 63 -25 71 c-32 88 -32 95 0 177 l26
67 -30 79 -29 78 28 78 29 77 -31 77 -30 76 25 69 c15 38 26 78 26 88 0 26
-50 150 -60 150 -5 0 -69 -37 -144 -81 l-136 -81 20 -26 c11 -13 20 -36 20
-49 0 -23 -3 -24 -27 -18 -39 11 -69 8 -105 -11 -29 -15 -32 -15 -44 1 -12 15
-25 10 -148 -65 -75 -44 -136 -85 -136 -89 0 -4 4 -11 8 -16 5 -6 19 -38 31
-72 l23 -62 -22 -58 c-12 -32 -26 -64 -32 -71 -8 -9 -8 -19 0 -35 17 -33 52
-130 52 -144 0 -6 -5 -24 -11 -40 -10 -27 -11 -27 -25 -9 -8 11 -14 30 -14 42
0 29 -18 41 -26 17 -3 -10 -10 -27 -14 -38 -5 -11 -12 -30 -15 -42 -4 -13 -13
-23 -22 -23 -13 0 -15 9 -11 49 5 55 5 56 -127 125 l-60 31 -3 54 c-4 60 11
83 81 127 31 21 37 30 37 60 0 32 -4 37 -44 55 -32 14 -50 30 -65 59 -27 51
-26 60 4 120 31 61 34 110 6 110 -11 0 -22 4 -26 9 -6 10 108 111 125 111 10
0 40 52 40 69 0 5 -16 19 -35 31 l-35 22 -29 -24 c-15 -14 -43 -31 -61 -38
-29 -12 -34 -12 -46 5 -20 27 -17 43 11 77 20 24 23 33 14 50 -8 15 -17 19
-39 14 -33 -6 -43 4 -60 60 -11 37 -10 43 14 79 34 50 30 69 -14 75 -29 4 -37
10 -45 39 -5 19 -24 49 -41 67 -30 33 -119 86 -129 76 -2 -3 -42 -4 -87 -3
-90 2 -139 -10 -207 -53 -32 -21 -46 -24 -61 -16 -26 14 -36 13 -54 -6 -23
-23 -20 -34 10 -34 24 0 25 -3 19 -27 -3 -16 -20 -41 -37 -57 -29 -25 -36 -27
-80 -22 l-48 7 0 -36 c0 -43 20 -54 56 -30 14 9 30 13 34 8 5 -4 -6 -70 -25
-147 -29 -124 -37 -142 -68 -175 -67 -68 -84 -149 -47 -230 15 -32 20 -65 20
-131 0 -99 -5 -120 -29 -120 -9 0 -151 81 -316 180 -165 99 -306 180 -314 180
-7 0 -84 -40 -170 -89 -180 -103 -191 -108 -191 -89 0 7 74 54 165 103 91 50
164 93 162 97 -3 10 -646 398 -659 398 -6 0 -44 -18 -84 -41 -41 -22 -74 -36
-74 -32 0 5 33 28 74 51 140 80 165 48 -225 282 -188 113 -347 206 -353 207
-6 1 -102 -50 -213 -113z m3887 -936 c-12 -47 -31 -101 -43 -115 -6 -9 -2 -27
12 -58 11 -25 21 -51 21 -59 0 -8 5 -18 11 -21 20 -13 -13 -138 -48 -177 -13
-15 -12 -19 5 -36 11 -11 27 -45 37 -75 17 -56 17 -58 -5 -128 -13 -39 -29
-73 -36 -76 -11 -4 -10 -10 5 -30 11 -13 23 -38 26 -56 4 -18 12 -37 17 -44
18 -23 -29 -183 -54 -183 -6 0 -4 -8 6 -19 48 -53 65 -172 31 -218 -12 -16
-17 -15 -66 18 -30 19 -62 38 -72 42 -42 16 -43 77 -5 175 l21 52 -27 74 c-29
79 -29 94 6 184 l21 52 -26 73 c-28 78 -27 118 8 201 16 37 15 40 -10 103 -29
74 -28 118 4 201 19 47 19 54 6 86 -21 51 -20 69 4 56 27 -14 79 -12 116 4 39
17 45 13 35 -26z m-1870 -382 c0 -18 -89 -68 -109 -61 -18 7 -7 19 46 51 45
26 63 29 63 10z m1448 -482 c-5 -42 -28 -43 -28 -1 0 18 3 37 7 41 12 12 25
-11 21 -40z m-1498 -452 c0 -17 -67 -64 -225 -157 -108 -63 -171 -95 -182 -91
-14 6 -15 9 -2 20 24 24 357 216 373 216 9 0 16 5 16 10 0 6 5 10 10 10 6 0
10 -3 10 -8z m2763 -527 c4 -8 2 -17 -2 -20 -5 -2 -11 4 -14 15 -6 23 8 27 16
5z m62 -191 c41 -128 50 -172 29 -151 -6 6 -93 285 -94 300 0 5 4 6 10 2 5 -3
30 -71 55 -151z m-557 -58 c34 -112 37 -125 23 -110 -9 8 -71 191 -71 208 0 3
4 6 8 6 5 0 23 -47 40 -104z m-484 49 c20 -31 19 -136 -2 -143 -17 -5 -46 65
-44 111 2 62 19 74 46 32z m114 -68 c4 -20 -25 -34 -40 -19 -15 15 -1 44 19
40 10 -2 19 -11 21 -21z m1042 -337 c0 -13 -1 -13 -10 0 -5 8 -10 22 -10 30 0
13 1 13 10 0 5 -8 10 -22 10 -30z m35 -96 c20 -71 14 -95 -8 -30 -16 47 -22
86 -13 86 3 0 12 -25 21 -56z m-202 -85 c77 -46 150 -90 163 -97 27 -15 31
-30 11 -38 -11 -4 -12 -15 -4 -54 8 -43 12 -48 28 -40 31 17 37 11 32 -29 -5
-35 -2 -40 26 -57 17 -10 31 -22 31 -26 0 -8 -64 -50 -92 -61 -9 -3 -19 -22
-23 -47 -4 -23 -13 -44 -21 -47 -7 -3 -40 12 -74 32 -47 28 -67 35 -89 30
l-28 -6 -6 118 c-5 125 -36 242 -91 351 -14 27 -22 52 -19 56 7 7 -9 15 156
-85z m-2260 -679 c-3 -10 -11 -25 -19 -31 -11 -9 -14 -8 -14 8 0 19 17 43 31
43 4 0 5 -9 2 -20z m-163 -294 c0 -16 -18 -31 -27 -22 -8 8 5 36 17 36 5 0 10
-6 10 -14z m-1042 -1317 c-2 -6 -20 -21 -40 -33 -42 -24 -65 -14 -53 23 5 17
14 21 52 21 29 0 43 -4 41 -11z m969 -624 l36 -35 -33 -30 c-18 -16 -36 -30
-41 -30 -5 0 -9 29 -9 65 0 36 2 65 5 65 4 0 22 -16 42 -35z"/>
<path d="M9980 10233 c0 -5 4 -13 8 -20 6 -9 11 -7 20 7 11 17 10 20 -8 20
-11 0 -20 -3 -20 -7z"/>
<path d="M8255 10187 c5 -55 25 -101 24 -57 0 14 -7 43 -15 65 l-14 40 5 -48z"/>
<path d="M8291 10010 c0 -14 7 -43 15 -65 l14 -40 -5 48 c-5 55 -25 101 -24
57z"/>
<path d="M9580 10010 c0 -11 5 -20 10 -20 6 0 10 9 10 20 0 11 -4 20 -10 20
-5 0 -10 -9 -10 -20z"/>
<path d="M11213 9943 c9 -2 23 -2 30 0 6 3 -1 5 -18 5 -16 0 -22 -2 -12 -5z"/>
<path d="M8328 9829 c-2 -8 4 -36 14 -64 l18 -50 -6 50 c-7 57 -18 86 -26 64z"/>
<path d="M8816 9772 c-8 -25 -11 -671 -3 -679 4 -3 7 14 7 38 0 24 1 182 3
352 1 169 2 307 0 307 -1 0 -4 -8 -7 -18z"/>
<path d="M11224 9768 c-8 -12 21 -38 43 -38 18 0 16 37 -3 44 -23 9 -32 7 -40
-6z"/>
<path d="M11005 9750 c-8 -13 5 -13 25 0 13 8 13 10 -2 10 -9 0 -20 -4 -23
-10z"/>
<path d="M11172 9728 c-5 -7 -12 -23 -16 -34 -6 -19 -3 -21 32 -20 34 0 38 3
34 21 -6 23 -21 45 -32 45 -4 0 -12 -6 -18 -12z"/>
<path d="M10959 9713 c-12 -15 -12 -16 4 -10 10 4 23 7 28 7 5 0 9 5 9 10 0
16 -26 12 -41 -7z"/>
<path d="M10910 9685 c-24 -14 -24 -14 -3 -15 12 0 25 5 28 11 11 17 2 18 -25
4z"/>
<path d="M11747 9657 c-6 -16 26 -47 48 -47 5 0 2 5 -8 11 -10 6 -22 20 -26
31 -7 18 -9 19 -14 5z"/>
<path d="M10841 9649 c-13 -5 -22 -11 -20 -13 7 -7 59 6 59 15 0 11 -8 11 -39
-2z"/>
<path d="M8371 9610 c0 -19 6 -46 14 -60 l14 -25 0 30 c0 17 -6 44 -14 60
l-13 30 -1 -35z"/>
<path d="M10974 9594 c-15 -22 -15 -27 -3 -35 8 -5 24 -9 37 -9 29 0 31 44 2
60 -16 9 -22 6 -36 -16z"/>
<path d="M10523 9461 c-57 -22 -58 -26 -7 -26 34 0 45 4 50 18 8 25 5 26 -43
8z"/>
<path d="M10786 9464 c-5 -13 19 -64 30 -64 2 0 4 18 4 40 0 41 -21 57 -34 24z"/>
<path d="M8410 9424 c0 -18 7 -47 16 -65 l15 -34 -5 48 c-7 61 -25 97 -26 51z"/>
<path d="M10370 9330 c-13 -8 -13 -10 2 -10 9 0 20 5 23 10 8 13 -5 13 -25 0z"/>
<path d="M10640 9323 c8 -3 24 -13 35 -22 20 -16 20 -16 1 7 -11 12 -26 22
-35 21 -14 0 -14 -1 -1 -6z"/>
<path d="M8450 9234 c0 -18 7 -47 16 -65 l15 -34 -5 48 c-7 61 -25 97 -26 51z"/>
<path d="M11550 9182 c-38 -20 -64 -36 -208 -131 -53 -35 -110 -67 -127 -70
-21 -5 -31 -14 -33 -29 -3 -18 0 -21 15 -15 35 13 403 245 403 254 0 13 -12
11 -50 -9z"/>
<path d="M9316 9092 c-11 -18 -19 -302 -8 -302 11 0 25 128 24 232 0 69 -5 88
-16 70z"/>
<path d="M8488 9054 c-6 -27 5 -67 21 -72 10 -3 11 4 6 29 -11 49 -21 66 -27
43z"/>
<path d="M8807 9041 c-4 -18 -3 -40 2 -48 6 -12 9 -9 13 14 2 17 1 39 -2 49
-5 14 -8 11 -13 -15z"/>
<path d="M9680 9031 c0 -19 -5 -31 -13 -31 -8 0 -19 -11 -25 -24 -6 -13 -32
-39 -59 -57 -64 -43 -109 -85 -145 -138 -30 -42 -30 -45 -15 -71 20 -32 12
-45 -48 -81 -64 -39 -69 -42 -144 -93 -80 -55 -97 -82 -22 -36 26 17 54 30 61
30 7 0 21 11 32 25 22 28 59 33 82 10 21 -22 32 -19 12 4 -9 10 -14 25 -10 34
6 17 47 47 63 47 10 0 251 -402 251 -419 0 -14 -61 -52 -72 -45 -4 3 -8 13 -8
23 0 10 -7 24 -15 31 -13 11 -14 7 -9 -33 6 -41 4 -47 -20 -62 -14 -9 -32 -15
-40 -12 -9 4 -21 -4 -31 -19 -9 -14 -32 -32 -50 -41 -19 -9 -35 -23 -35 -30 0
-8 18 -2 50 18 55 34 70 32 70 -11 0 -34 -25 -45 -85 -38 -26 3 -35 0 -35 -10
0 -12 10 -13 48 -8 26 3 52 2 58 -2 7 -4 15 -45 19 -93 7 -83 6 -86 -20 -117
-15 -18 -33 -32 -41 -32 -24 0 -15 -19 16 -35 17 -9 30 -20 30 -26 0 -5 -13
-15 -30 -20 -16 -6 -30 -18 -30 -26 0 -11 12 -7 49 13 l49 28 157 -74 c86 -41
159 -79 163 -86 5 -9 12 -10 22 -4 18 11 27 6 -122 74 -137 63 -188 91 -188
104 0 4 36 30 80 57 73 43 101 65 86 65 -3 0 -46 -25 -96 -55 -91 -55 -105
-60 -134 -49 -23 9 -20 24 11 56 22 24 35 28 78 28 28 0 56 5 63 12 7 7 12 36
12 66 0 47 4 58 30 82 38 35 39 58 3 62 -25 3 -28 8 -31 43 -2 30 -10 47 -33
66 l-30 27 29 21 c17 11 37 21 45 21 14 0 47 -55 47 -79 0 -19 116 -13 178 9
31 12 61 22 66 23 4 1 17 -14 28 -33 32 -55 47 -61 78 -30 17 17 19 28 14 75
-5 37 -3 59 6 70 16 19 68 45 94 46 17 1 18 2 4 6 -25 6 -23 12 22 67 22 26
40 54 40 61 0 7 9 24 20 38 29 37 38 180 15 266 -51 198 -233 324 -441 307
-57 -4 -75 -2 -84 9 -7 9 -27 15 -44 14 -17 0 -41 2 -53 6 -21 7 -23 4 -23
-24z"/>
<path d="M8521 8904 c0 -11 3 -14 6 -6 3 7 2 16 -1 19 -3 4 -6 -2 -5 -13z"/>
<path d="M8807 8903 c-11 -10 -8 -51 3 -58 6 -4 10 8 10 29 0 37 -2 41 -13 29z"/>
<path d="M9018 8835 c-48 -30 -94 -55 -101 -55 -8 0 -22 -9 -32 -20 -21 -23
-60 -27 -68 -6 -3 8 -14 12 -24 10 -11 -3 -30 3 -43 14 -20 16 -29 18 -48 9
-17 -8 -29 -8 -44 2 -17 11 -23 10 -39 -8 -11 -12 -29 -21 -39 -21 -17 0 -20
6 -18 38 1 45 -20 92 -33 71 -4 -7 -5 -33 -2 -56 4 -29 1 -46 -8 -55 -17 -17
-95 -43 -121 -41 -11 1 -28 -6 -38 -15 -10 -9 -96 -62 -190 -116 l-172 -100
38 -31 c38 -32 38 -32 13 -38 -13 -4 -35 -15 -48 -25 l-23 -19 33 5 c19 3 43
11 53 18 21 14 60 9 86 -10 8 -7 58 -33 110 -58 52 -26 116 -63 142 -82 26
-20 55 -36 65 -36 10 0 34 -13 53 -30 19 -16 41 -29 48 -30 8 0 27 -8 42 -17
28 -16 29 -16 152 57 68 41 134 80 148 87 81 41 124 79 136 118 6 22 21 61 33
87 35 77 35 76 -96 152 -46 26 -83 52 -83 57 0 5 -7 9 -15 9 -8 0 -15 7 -15
15 0 8 7 15 15 15 8 0 15 4 15 8 0 5 49 37 110 73 97 57 127 80 103 79 -5 -1
-47 -25 -95 -55z"/>
<path d="M10906 8874 c-4 -9 -4 -19 -1 -22 2 -3 7 3 11 12 4 9 4 19 1 22 -2 3
-7 -3 -11 -12z"/>
<path d="M11022 8840 c-8 -13 -8 -20 -2 -20 6 0 13 7 17 15 9 24 -1 27 -15 5z"/>
<path d="M8446 8801 c-3 -5 1 -11 9 -15 8 -3 15 -1 15 4 0 13 -18 22 -24 11z"/>
<path d="M10955 8780 c-3 -5 -2 -10 4 -10 5 0 13 5 16 10 3 6 2 10 -4 10 -5 0
-13 -4 -16 -10z"/>
<path d="M10752 8668 c-7 -7 -12 -16 -12 -20 0 -15 15 -8 28 12 13 22 3 27
-16 8z"/>
<path d="M7043 8593 c-18 -9 -33 -20 -33 -24 0 -4 19 -40 42 -81 22 -40 49
-89 58 -108 12 -27 219 -350 236 -369 6 -6 54 17 54 26 0 5 -45 80 -100 168
-66 105 -98 165 -93 175 3 8 8 36 11 62 3 38 -1 57 -22 93 -44 75 -87 91 -153
58z"/>
<path d="M12706 8523 c-9 -10 -7 -43 3 -43 11 0 21 39 11 45 -4 2 -10 2 -14
-2z"/>
<path d="M7594 8288 c11 -154 18 -208 28 -208 6 0 7 29 3 78 -6 65 -4 80 9 91
24 20 20 74 -9 105 -13 14 -27 26 -31 26 -4 0 -4 -42 0 -92z"/>
<path d="M12267 8303 c-13 -12 -7 -38 11 -54 17 -14 20 -14 39 0 27 22 14 61
-20 61 -13 0 -27 -3 -30 -7z"/>
<path d="M7590 7936 c0 -2 7 -7 16 -10 8 -3 12 -2 9 4 -6 10 -25 14 -25 6z"/>
<path d="M9360 7835 c-15 -18 -6 -45 15 -45 9 0 15 9 15 24 0 31 -14 40 -30
21z"/>
<path d="M9190 7760 c0 -5 5 -10 11 -10 5 0 7 5 4 10 -3 6 -8 10 -11 10 -2 0
-4 -4 -4 -10z"/>
<path d="M9213 7680 c-13 -5 -23 -18 -23 -29 0 -11 -4 -23 -10 -26 -5 -3 -10
-30 -10 -58 1 -61 16 -84 78 -111 41 -19 42 -19 63 0 11 10 27 33 34 51 14 32
38 43 50 23 9 -15 45 -12 45 3 0 16 -51 67 -67 67 -6 0 -13 7 -16 15 -8 20
-86 75 -106 74 -9 0 -26 -4 -38 -9z"/>
<path d="M9932 7498 c3 -7 12 -14 21 -16 12 -2 15 1 11 12 -7 19 -38 22 -32 4z"/>
<path d="M3090 5068 c-14 -6 -20 -12 -14 -14 6 -3 24 2 40 11 33 17 13 19 -26
3z"/>
<path d="M3035 5029 c-4 -6 -25 -24 -47 -40 -43 -30 -37 -39 11 -15 15 8 32
26 39 40 11 26 9 36 -3 15z"/>
<path d="M5510 4239 c0 -11 5 -17 10 -14 6 3 10 13 10 21 0 8 -4 14 -10 14 -5
0 -10 -9 -10 -21z"/>
<path d="M5360 3959 c0 -5 5 -7 10 -4 6 3 10 8 10 11 0 2 -4 4 -10 4 -5 0 -10
-5 -10 -11z"/>
</g>
</svg>
